<svg width="38" height="40" viewBox="0 0 38 40" fill="none" xmlns="http://www.w3.org/2000/svg">
<g filter="url(#filter0_d_0_63)">
<path d="M19 0C13.3772 0 8.6875 4.52938 8.6875 10.3125C8.6875 12.5126 9.34862 14.4745 10.6174 16.3129L18.2108 28.1616C18.5792 28.7376 19.4216 28.7365 19.7892 28.1616L27.4155 16.2726C28.657 14.5175 29.3125 12.4567 29.3125 10.3125C29.3125 4.62619 24.6863 0 19 0ZM19 15C16.4154 15 14.3125 12.8971 14.3125 10.3125C14.3125 7.72794 16.4154 5.625 19 5.625C21.5846 5.625 23.6875 7.72794 23.6875 10.3125C23.6875 12.8971 21.5846 15 19 15Z" fill="#CD06FF"/>
<path d="M26.329 21.5435L21.6083 28.9239C20.3864 30.829 17.6068 30.8228 16.3907 28.9257L11.6624 21.5454C7.50213 22.5073 4.9375 24.2693 4.9375 26.375C4.9375 30.0289 12.183 32 19 32C25.817 32 33.0625 30.0289 33.0625 26.375C33.0625 24.2678 30.4943 22.5048 26.329 21.5435Z" fill="#CD06FF"/>
</g>
<defs>
<filter id="filter0_d_0_63" x="-1" y="0" width="40" height="40" filterUnits="userSpaceOnUse" color-interpolation-filters="sRGB">
<feFlood flood-opacity="0" result="BackgroundImageFix"/>
<feColorMatrix in="SourceAlpha" type="matrix" values="0 0 0 0 0 0 0 0 0 0 0 0 0 0 0 0 0 0 127 0" result="hardAlpha"/>
<feOffset dy="4"/>
<feGaussianBlur stdDeviation="2"/>
<feComposite in2="hardAlpha" operator="out"/>
<feColorMatrix type="matrix" values="0 0 0 0 0 0 0 0 0 0 0 0 0 0 0 0 0 0 0.25 0"/>
<feBlend mode="normal" in2="BackgroundImageFix" result="effect1_dropShadow_0_63"/>
<feBlend mode="normal" in="SourceGraphic" in2="effect1_dropShadow_0_63" result="shape"/>
</filter>
</defs>
</svg>
